<svg width="232" height="135" viewBox="0 0 232 135" fill="none" xmlns="http://www.w3.org/2000/svg">
<g id="Group">
<path id="Vector" d="M217.151 95.1306C192.414 86.935 181.573 60.0941 176.844 37.5012V0H172.196V2.72517C172.075 2.81535 171.995 2.95561 171.975 3.11592C171.975 3.17603 171.845 3.96754 171.554 5.30007H159.602V0H154.953V12.5037C150.494 25.5185 138.652 47.7607 109.557 50.9567C83.2167 48.1113 71.3141 30.2574 66.1643 17.7136V0.0100288H61.5155V4.85923C61.3953 4.95942 61.3051 5.09969 61.2951 5.27001C61.2951 5.28003 61.2951 5.30006 61.2951 5.31008H48.9316V0.0100288H44.2828V26.2599C36.458 73.76 16.5201 90.4818 9.16614 95.1306H0.219166V100.922H44.2828V129.305H37.8706V134.806H72.9172V129.305H66.1643V100.922H154.953V129.305H148.37V134.806H183.417V129.305H176.834V100.922H231.568V95.1306H217.151ZM213.755 95.1306H206.611V91.4737C208.885 92.9064 211.28 94.1087 213.755 95.1306ZM205.419 90.6922V95.1306H202.593C201.822 94.8801 201.06 94.5996 200.319 94.309V86.7647C201.952 88.1974 203.655 89.5099 205.419 90.6922ZM36.6183 84.9413C37.6502 83.6889 38.7122 82.3063 39.7743 80.8234V95.1306H36.6383V84.9413H36.6183ZM42.9302 76.0945C43.3811 75.3631 43.832 74.6117 44.2828 73.8402V95.1306H42.9302V76.0945ZM172.065 8.69652C172.095 9.48802 172.136 10.3697 172.186 11.3115V18.8658H168.839V17.5934C170.272 14.1869 171.264 11.1211 171.925 8.69652H172.055H172.065ZM199.117 95.1306H194.017V92.6158C195.67 93.5476 197.363 94.3692 199.117 95.0905V95.1206V95.1306ZM192.825 95.1306H192.063V91.4737C192.314 91.634 192.574 91.7642 192.825 91.9245V95.1306ZM190.861 95.1306H187.725V88.3778C188.747 89.1893 189.789 89.9708 190.861 90.6822V95.1206V95.1306ZM186.533 95.1306H185.771V86.7647C186.022 86.9851 186.282 87.1855 186.533 87.3959V95.1306ZM184.569 85.853V95.1306H181.433V82.4766C182.515 83.6588 183.607 84.791 184.749 85.853H184.569ZM180.241 95.1306H179.479V80.2524C179.73 80.5529 179.99 80.8234 180.241 81.124V95.1406V95.1306ZM178.277 78.9198V95.1306H176.844V76.7657C177.365 77.4871 177.866 78.2285 178.407 78.9198H178.277ZM161.355 32.4316H161.305C161.235 32.0408 161.165 31.6501 161.105 31.2594C161.185 31.1491 161.275 31.0489 161.355 30.9387V32.4416V32.4316ZM172.196 35.828V45.9973H168.849V35.828H172.196ZM168.849 32.4316V22.2623H172.196V32.4316H168.849ZM160.644 35.828C160.864 36.9502 161.105 38.0923 161.355 39.2345V45.9873H160.594V35.818H160.654L160.644 35.828ZM160.584 49.3938H161.345V59.5631H160.584V49.3938ZM160.584 62.9595H161.345V73.1288H160.584V62.9595ZM162.547 62.9595H165.683V73.1288H162.547V62.9595ZM166.876 62.9595H167.637V73.1288H166.876V62.9595ZM166.876 59.5631V58.0001C167.076 58.5311 167.296 59.0421 167.507 59.5631H166.876ZM168.839 62.9595H168.949C169.901 65.0836 170.903 67.1274 171.965 69.0711V73.1288H168.829V62.9595H168.839ZM170.342 62.9595H172.186V66.7868C171.544 65.5244 170.923 64.252 170.342 62.9595ZM168.879 59.5631C168.879 59.5631 168.849 59.503 168.839 59.4629V49.3938H172.186V59.5631H168.879ZM167.637 56.3971C166.775 54.0727 165.994 51.7382 165.293 49.3938H167.637V56.3971ZM165.743 54.9643H165.673V59.5631H162.537V49.3938H163.94C164.511 51.2974 165.102 53.1609 165.743 54.9643ZM162.537 45.9973V44.3442C162.557 44.4344 162.577 44.5245 162.607 44.6147C162.728 45.0856 162.868 45.5264 162.998 45.9973H162.547H162.537ZM160.574 76.5253H161.335V95.1406H160.574V76.5253ZM162.537 76.5253H165.673V95.1406H162.537V76.5253ZM166.866 76.5253H167.627V95.1406H166.866V76.5253ZM168.829 76.5253H171.965V95.1406H168.829V76.5253ZM167.627 45.9973H164.301C163.639 43.5627 163.048 41.1381 162.527 38.7636V35.828H167.627V45.9973ZM167.627 22.2623V32.4316H162.527V29.3858H162.427C164.06 27.0013 165.453 24.5967 166.645 22.2623H167.617H167.627ZM160.804 29.6062C160.393 27.0413 160.063 24.5767 159.782 22.2623H165.293C164.03 24.6768 162.557 27.1616 160.804 29.6062ZM154.933 45.9873V95.1306H154.272V38.8437C154.492 38.6434 154.722 38.453 154.933 38.2426V45.9873ZM153.069 95.1306H149.933V42.4506C151.035 41.6391 152.067 40.7975 153.069 39.9258V95.1306ZM148.741 95.1306H147.98V43.8132C148.23 43.6429 148.501 43.4926 148.741 43.3222V95.1306ZM146.777 95.1306H143.641V46.3981C144.723 45.827 145.765 45.2158 146.777 44.5947V95.1306ZM142.449 95.1306H141.688V47.3499C141.938 47.2297 142.209 47.1195 142.449 46.9992V95.1306ZM140.485 95.1306H137.349V49.1734C138.432 48.7826 139.464 48.3518 140.485 47.911V95.1406V95.1306ZM136.157 95.1306H135.396V49.8346C135.646 49.7545 135.907 49.6843 136.157 49.6042V95.1306ZM134.194 95.1306H131.058V51.0269C132.13 50.7764 133.172 50.5059 134.194 50.2053V95.1306ZM129.865 95.1306H129.104V51.4276C129.354 51.3775 129.615 51.3375 129.865 51.2874V95.1306ZM127.902 95.1306H124.766V52.0989C125.838 51.9687 126.87 51.8184 127.902 51.638V95.1306ZM123.573 95.1306H122.812V52.2893C123.062 52.2692 123.323 52.2592 123.573 52.2292V95.1206V95.1306ZM121.61 95.1306H118.474V52.5197C119.536 52.4997 120.578 52.4496 121.61 52.3794V95.1306ZM117.281 95.1306H116.52V52.5498C116.66 52.5498 116.79 52.5498 116.931 52.5498C117.051 52.5498 117.161 52.5498 117.281 52.5498V95.1306ZM115.318 95.1306H112.182V52.3895C113.204 52.4596 114.256 52.4997 115.318 52.5297V95.1306ZM110.989 52.2993V95.1306H110.228V52.2191C110.489 52.2392 110.739 52.2793 110.989 52.2993ZM109.026 52.2392V95.1306H105.89V52.4496C106.952 52.3995 108.004 52.3394 109.026 52.2392ZM104.698 95.1306H103.936V52.5197C104.197 52.5197 104.447 52.4997 104.698 52.4896V95.1306ZM102.734 95.1306H99.5978V52.4896C100.51 52.5297 101.431 52.5598 102.383 52.5598C102.503 52.5598 102.614 52.5598 102.734 52.5598V95.1406V95.1306ZM98.4056 95.1306H97.6441V52.3895C97.8946 52.4095 98.1551 52.4195 98.4056 52.4295V95.1306ZM96.4418 95.1306H93.3059V51.9586C94.3278 52.0889 95.3698 52.2091 96.4418 52.2993V95.1306ZM92.1136 95.1306H91.3522V51.6781C91.6026 51.7182 91.8631 51.7482 92.1136 51.7883V95.1306ZM90.1499 95.1306H87.0139V50.7864C88.0359 51.0369 89.0779 51.2673 90.1499 51.4577V95.1306ZM85.8217 95.1306H85.0602V50.2855C85.3107 50.3556 85.5712 50.4157 85.8217 50.4858V95.1406V95.1306ZM83.8579 50.0951V95.1306H80.722V48.8327C81.9243 49.2836 83.1466 49.7144 84.429 50.0951H83.8579ZM79.5297 95.1306H78.7683V48.0612C79.0188 48.1715 79.2793 48.2616 79.5297 48.3618V95.1306ZM77.566 47.6905V95.1306H74.43V45.9573C75.5522 46.5584 76.6943 47.1495 77.8966 47.6905H77.556H77.566ZM73.2378 95.1306H72.4763V44.8552C72.7268 45.0054 72.9873 45.1357 73.2378 45.286V95.1306ZM71.2741 95.1306H68.1381V41.8695C69.14 42.6309 70.172 43.3723 71.2741 44.0837V95.1306ZM66.9458 95.1306H66.1944V40.3266C66.4349 40.5269 66.6954 40.7173 66.9458 40.9177V95.1306ZM49.2623 64.1318C49.4326 63.751 49.5929 63.3503 49.7632 62.9595H52.3882V73.1288H49.2522V64.1318H49.2623ZM54.3619 59.5631H53.6005V52.9706C53.861 52.2091 54.1115 51.4577 54.3619 50.6762V59.5731V59.5631ZM52.3982 59.5631H51.1759C51.5867 58.5311 51.9975 57.4691 52.3982 56.377V59.5631ZM53.6005 62.9595H54.3619V73.1288H53.6005V62.9595ZM55.5642 62.9595H58.7002V73.1288H55.5642V62.9595ZM59.8924 62.9595H60.6539V73.1288H59.8924V62.9595ZM60.6539 59.5631H59.8924V49.3938H60.6539V59.5631ZM60.6539 45.9973H59.8924V35.828H60.6539V45.9973ZM58.6902 35.828V45.9973H55.7546C56.6563 42.8013 57.5079 39.4148 58.2794 35.828H58.6902ZM58.6902 49.3938V59.5631H55.5542V49.3938H58.6902ZM52.3982 52.7802C51.5967 55.1447 50.7751 57.429 49.9135 59.5531H48.9617V49.3838H52.3982V52.7702V52.7802ZM49.2623 76.5153H52.3982V95.1306H49.2623V76.5153ZM53.5905 76.5153H54.3519V95.1306H53.5905V76.5153ZM55.5542 76.5153H58.6902V95.1306H55.5542V76.5153ZM59.8824 76.5153H60.6439V95.1306H59.8824V76.5153ZM60.6439 32.4215H60.2231C59.8824 31.9907 59.5518 31.5599 59.2212 31.1291C59.7321 28.4139 60.2131 25.5986 60.6439 22.663V32.4115V32.4215ZM57.7384 32.4215H53.5805V24.5967C54.8028 26.851 56.2656 29.1453 57.9488 31.4196C57.8786 31.7603 57.8085 32.0809 57.7384 32.4215ZM57.037 35.818C56.2555 39.4048 55.4039 42.7912 54.5022 45.9873H53.5805V35.818H57.037ZM52.3782 45.9873H48.9417V35.818H52.3782V45.9873ZM58.2393 29.7866C56.4459 27.2618 54.9431 24.7069 53.7107 22.2523H59.4717C59.0909 24.8472 58.6902 27.362 58.2493 29.7866H58.2393ZM52.3782 22.2723V32.4215H48.9417V22.2523H52.3682C52.3682 22.2523 52.3682 22.2623 52.3782 22.2723ZM48.9417 18.8558V13.9164C49.4526 15.4393 50.0638 17.1025 50.8152 18.8558H48.9417ZM41.748 95.1206H40.9866V79.0901C41.237 78.7094 41.4975 78.3487 41.748 77.958V95.1206ZM35.4561 95.1206H34.6946V87.1655C34.9451 86.8849 35.2056 86.6044 35.4561 86.3139V95.1206ZM33.4923 95.1206H30.3564V91.5238C31.3483 90.622 32.4003 89.6001 33.4923 88.4579V95.1206ZM29.1641 95.1206H28.4027V93.1969C28.6632 92.9865 28.9036 92.7962 29.1641 92.5757V95.1206ZM27.2004 95.1206H25.8879C26.2987 94.83 26.7495 94.4994 27.2004 94.1487V95.1206ZM199.327 85.843H199.137V93.8181C197.363 93.0667 195.66 92.2251 194.037 91.2833V80.2524C195.71 82.2762 197.474 84.1498 199.317 85.853L199.327 85.843ZM192.975 78.9098H192.845V90.5419C191.051 89.4298 189.358 88.1974 187.745 86.8649V71.1751C189.378 73.9504 191.112 76.5353 192.965 78.9098H192.975ZM186.553 69.0611V85.843C184.739 84.2499 183.046 82.5267 181.453 80.7032V57.9901C182.986 61.9576 184.689 65.6446 186.553 69.0611ZM177.195 44.6047C178.127 48.2215 179.179 51.6781 180.331 54.9543H180.261V79.2705C179.059 77.7977 177.937 76.2648 176.865 74.6818V43.2221C176.975 43.6829 177.075 44.1438 177.195 44.6047ZM170.723 8.6865C169.951 11.4317 168.769 14.9684 167.006 18.8558H159.622V8.6865H170.713H170.723ZM154.983 15.9202V36.5494C154.763 36.7698 154.542 36.9802 154.322 37.1906V17.5934C154.562 17.0223 154.773 16.4813 154.983 15.9303V15.9202ZM153.119 20.2785V38.3328C151.556 39.7455 149.853 41.098 148.02 42.3604V29.3758H147.92C150.024 26.31 151.727 23.2141 153.109 20.2785H153.119ZM146.827 30.9287V43.1419C145.224 44.1739 143.531 45.1357 141.728 46.0174V36.9802C143.631 35.0365 145.315 33.0027 146.827 30.9387V30.9287ZM140.536 38.1524V46.5884C138.922 47.3198 137.219 47.9811 135.436 48.5622V42.4506C137.269 41.098 138.973 39.6553 140.536 38.1524ZM134.244 43.3222V48.9329C132.61 49.4238 130.927 49.8647 129.144 50.2153V46.3981C130.947 45.4463 132.651 44.4243 134.244 43.3222ZM127.952 47.0093V50.4157C126.309 50.7063 124.615 50.9267 122.852 51.077V49.1633C124.635 48.5121 126.339 47.7907 127.952 46.9992V47.0093ZM121.66 49.6042V51.1972C120.147 51.2974 118.584 51.3675 116.981 51.3675C116.841 51.3675 116.71 51.3575 116.57 51.3575V51.0269C118.333 50.6261 120.037 50.1552 121.67 49.6042H121.66ZM115.368 51.2874V51.3174C115.368 51.3174 115.268 51.3174 115.217 51.3174C115.268 51.3174 115.318 51.2974 115.368 51.2874ZM104.036 51.3174C103.495 51.3274 102.984 51.3675 102.433 51.3675C101.481 51.3675 100.57 51.3174 99.6479 51.2874V50.2855C101.051 50.6862 102.523 51.0169 104.036 51.3174ZM99.0167 50.0951H98.4456V51.2473C96.6823 51.1471 94.9891 50.9768 93.346 50.7564V48.0612C95.1394 48.8227 97.0229 49.504 99.0167 50.0951ZM92.4943 47.6905H92.1537V50.566C90.3903 50.2955 88.6871 49.9548 87.054 49.5541V44.8552C88.7472 45.8871 90.5707 46.8289 92.4943 47.6905ZM85.8617 44.0837V49.2335C84.0784 48.7425 82.3852 48.1715 80.7621 47.5403V40.3065C82.3351 41.6391 84.0383 42.9015 85.8617 44.0737V44.0837ZM79.5698 39.2445V47.0794C77.7664 46.328 76.0832 45.4763 74.4701 44.5746V33.9244C75.993 35.7579 77.6862 37.5413 79.5698 39.2445ZM73.2779 32.4215V43.8733C71.4544 42.7712 69.7612 41.589 68.1782 40.3266V24.5967C69.5808 27.1716 71.2741 29.8266 73.2779 32.4215ZM66.9759 39.3447C66.7254 39.1343 66.4649 38.9239 66.2245 38.7135V20.6993C66.4649 21.2203 66.7154 21.7513 66.9759 22.2823V39.3447ZM61.0847 8.69652C60.9945 9.78859 60.8943 10.8707 60.7841 11.9427H60.6839V12.9245C60.4735 14.9584 60.2431 16.9321 59.9926 18.8658H52.1678C50.6449 15.3491 49.633 12.1731 48.9917 9.77857V8.69652H61.0847ZM44.3429 32.9926V71.3955C43.2408 73.3893 42.1387 75.2429 41.0266 76.9561V46.7187C42.249 42.4907 43.3611 37.922 44.3429 32.9926ZM39.8344 50.6662V78.7796C38.1011 81.3044 36.3878 83.4985 34.7347 85.4021V64.1318C36.5281 60.1141 38.2514 55.6356 39.8344 50.6662ZM33.5424 66.7267V86.7447C31.719 88.7385 29.9957 90.3515 28.4427 91.674V76.1045C30.166 73.3292 31.8793 70.2133 33.5424 66.7367V66.7267ZM27.2505 77.978V92.6659C25.9179 93.7179 24.7557 94.5294 23.7939 95.1406H22.1508V84.9513H22.1308C23.8039 82.9274 25.5272 80.6231 27.2505 77.978ZM20.9585 86.3339V95.1406H15.8588V91.5438C17.4419 90.1111 19.1651 88.3878 20.9585 86.3339ZM14.6666 92.5958V95.1406H11.3904C12.3722 94.4493 13.4643 93.6177 14.6666 92.5958ZM61.5957 129.316H49.0018V100.932H61.5957V129.316ZM172.266 129.316H159.672V100.932H172.266V129.316Z" fill="url(#paint0_linear_218_34891)"/>
<path id="Vector_2" d="M232 94.7795H0V100.791H232V94.7795Z" fill="url(#paint1_linear_218_34891)"/>
<path id="Vector_3" d="M72.9598 129.216H37.8531V134.787H72.9598V129.216Z" fill="url(#paint2_linear_218_34891)"/>
<path id="Vector_4" d="M183.498 129.216H148.391V134.787H183.498V129.216Z" fill="url(#paint3_linear_218_34891)"/>
</g>
<defs>
<linearGradient id="paint0_linear_218_34891" x1="114.426" y1="133.173" x2="121.109" y2="-26.6907" gradientUnits="userSpaceOnUse">
<stop stop-color="white"/>
<stop offset="0.16" stop-color="#FDEBE6"/>
<stop offset="0.48" stop-color="#FAB9A7"/>
<stop offset="0.96" stop-color="#F46A43"/>
<stop offset="1" stop-color="#F4633A"/>
</linearGradient>
<linearGradient id="paint1_linear_218_34891" x1="116.04" y1="93.8177" x2="115.96" y2="101.693" gradientUnits="userSpaceOnUse">
<stop stop-color="white"/>
<stop offset="0.16" stop-color="#FDEBE6"/>
<stop offset="0.48" stop-color="#FAB9A7"/>
<stop offset="0.96" stop-color="#F46A43"/>
<stop offset="1" stop-color="#F4633A"/>
</linearGradient>
<linearGradient id="paint2_linear_218_34891" x1="55.4365" y1="129.196" x2="55.3764" y2="134.767" gradientUnits="userSpaceOnUse">
<stop stop-color="white"/>
<stop offset="0.16" stop-color="#FDEBE6"/>
<stop offset="0.48" stop-color="#FAB9A7"/>
<stop offset="0.96" stop-color="#F46A43"/>
<stop offset="1" stop-color="#F4633A"/>
</linearGradient>
<linearGradient id="paint3_linear_218_34891" x1="165.974" y1="129.196" x2="165.914" y2="134.767" gradientUnits="userSpaceOnUse">
<stop stop-color="white"/>
<stop offset="0.16" stop-color="#FDEBE6"/>
<stop offset="0.48" stop-color="#FAB9A7"/>
<stop offset="0.96" stop-color="#F46A43"/>
<stop offset="1" stop-color="#F4633A"/>
</linearGradient>
</defs>
</svg>
