<svg width="76" height="26" viewBox="0 0 76 26" fill="none" xmlns="http://www.w3.org/2000/svg">
<g id="Frame 1686579392" clip-path="url(#clip0_365_449)">
<path id="Vector" fill-rule="evenodd" clip-rule="evenodd" d="M70.4517 9.40147C70.4517 8.63524 71.0647 7.9916 71.8003 7.9916C72.5665 7.9916 73.1488 8.63524 73.1488 9.40147C73.1488 10.1677 72.5665 10.8113 71.8003 10.8113C71.0647 10.842 70.4517 10.1984 70.4517 9.40147ZM71.8003 10.5049C72.3826 10.5049 72.8117 10.0145 72.8117 9.43212C72.8117 8.84979 72.3519 8.3594 71.8003 8.3594C71.2179 8.3594 70.7888 8.84979 70.7888 9.43212C70.7888 10.0145 71.2486 10.5049 71.8003 10.5049ZM71.6164 10.0451H71.3405V8.78849H71.8615C71.9535 8.78849 72.0761 8.78849 72.168 8.84979C72.26 8.91108 72.3213 9.03368 72.3213 9.15628C72.3213 9.30953 72.2293 9.43212 72.1067 9.46277L72.3213 10.0145H72.0148L71.8309 9.52407H71.6164V10.0451ZM71.6164 9.34017H71.7696C71.8309 9.34017 71.8922 9.34018 71.9228 9.30953C71.9535 9.27888 71.9841 9.21758 71.9841 9.15628C71.9841 9.12563 71.9535 9.06433 71.9228 9.03368C71.8922 9.00303 71.8002 9.00303 71.7696 9.00303H71.6164C71.647 9.03368 71.6164 9.34017 71.6164 9.34017ZM51.1732 -0.00787557L50.8054 2.41342C50.0086 1.98433 49.4262 1.83109 48.7826 1.83109C47.0969 1.83109 45.9322 3.54745 45.9322 5.96875C45.9322 7.65446 46.7291 8.66589 48.047 8.66589C48.5987 8.66589 49.2117 8.48199 49.9779 8.08355L49.5795 10.6274C48.7519 10.8726 48.2002 10.9646 47.5873 10.9646C45.166 10.9646 43.6335 9.12563 43.6335 6.18329C43.6335 2.22953 45.7176 -0.559562 48.7213 -0.559562C49.1197 -0.559562 49.4569 -0.528915 49.7327 -0.436967L50.6828 -0.191771C50.8974 -0.0998231 50.9587 -0.0998236 51.1732 -0.00787557ZM43.6641 1.64719C43.6028 1.61654 43.5109 1.61654 43.4496 1.61654C42.714 1.61654 42.2849 2.01498 41.58 3.08771L41.7945 1.70849H39.741L38.3618 10.7194H40.6298C41.4574 5.20251 41.6413 4.25238 42.7447 4.25238H42.8979C43.1124 3.17966 43.3576 2.38277 43.7561 1.64719H43.6641ZM30.1784 10.5968C29.5654 10.8113 29.075 10.9033 28.554 10.9033C27.42 10.9033 26.7763 10.1984 26.7763 8.91108C26.7763 8.66589 26.807 8.39005 26.8376 8.08355L26.9909 7.19472L27.0828 6.48979L28.0636 0.329267H30.301L30.0252 1.64719H31.1898L30.8527 3.82329H29.7493L29.1363 7.65446C29.1057 7.80771 29.1057 7.93031 29.1057 8.02225C29.1057 8.48199 29.3509 8.69654 29.8719 8.69654C30.1478 8.69654 30.3317 8.66589 30.4849 8.60459L30.1784 10.5968ZM21.2595 4.55888C21.2595 5.6929 21.7805 6.48979 22.9758 7.07212C23.8646 7.53186 24.0485 7.65446 24.0485 8.08355C24.0485 8.63524 23.6501 8.91108 22.7613 8.91108C22.087 8.91108 21.474 8.81914 20.7384 8.54329L20.4319 10.6274L20.5239 10.6581L20.9223 10.75C21.0756 10.7807 21.2595 10.8113 21.5046 10.842C22.0257 10.8726 22.4548 10.9339 22.7613 10.9339C25.1213 10.9339 26.2246 9.98381 26.2246 7.93031C26.2246 6.70433 25.7649 5.96875 24.6309 5.41706C23.6808 4.95732 23.5888 4.86537 23.5888 4.43628C23.5888 3.94589 23.9566 3.70069 24.6922 3.70069C25.1519 3.70069 25.7343 3.76199 26.3166 3.85394L26.6537 1.76979C26.0101 1.64719 25.3358 1.58589 24.6615 1.58589C22.1176 1.52459 21.2595 2.87316 21.2595 4.55888ZM69.1644 10.7194H67.019L67.1109 9.83056C66.4979 10.5355 65.8543 10.842 65.0267 10.842C63.3717 10.842 62.299 9.34018 62.299 7.10277C62.299 4.09914 63.9847 1.55524 65.9769 1.55524C66.8657 1.55524 67.5093 1.95368 68.153 2.78121L68.6434 -0.375667H70.8808L69.1644 10.7194ZM65.8236 8.60459C66.8964 8.60459 67.6319 7.34797 67.6319 5.57031C67.6319 4.43628 67.2029 3.79264 66.4366 3.79264C65.4252 3.79264 64.6896 5.04927 64.6896 6.82693C64.6589 7.9916 65.0574 8.60459 65.8236 8.60459ZM37.3197 10.5355C36.5535 10.7807 35.7873 10.9033 34.9904 10.9033C32.4771 10.9033 31.1592 9.52407 31.1592 6.85758C31.1592 3.76199 32.8449 1.49394 35.113 1.49394C36.9826 1.49394 38.1472 2.78121 38.1472 4.77342C38.1472 5.41706 38.0553 6.09134 37.8714 7.01083H33.366C33.3353 7.16407 33.3353 7.22537 33.3353 7.28667C33.3353 8.3594 34.0096 8.88043 35.3275 8.88043C36.1244 8.88043 36.86 8.69654 37.6875 8.2981C37.6569 8.2981 37.3197 10.5355 37.3197 10.5355ZM36.0631 5.14122C36.0937 4.95732 36.0937 4.80407 36.0937 4.68148C36.0937 3.94589 35.6953 3.5168 35.021 3.5168C34.3161 3.5168 33.795 4.09914 33.5805 5.14122H36.0631ZM12.1872 10.7194H9.94984L11.2371 2.19888L8.32542 10.7194H6.79295L6.60906 2.26018L5.22984 10.7194H3.11503L4.92334 -0.375667H8.17217L8.26412 6.48979L10.4402 -0.375667H13.9649L12.1872 10.7194ZM18.0106 6.70433C17.7654 6.67368 17.6735 6.67368 17.4896 6.67368C16.2023 6.67368 15.5587 7.13342 15.5587 8.0529C15.5587 8.60459 15.8958 8.97238 16.3862 8.97238C17.3057 8.94173 17.98 8.02225 18.0106 6.70433ZM19.6657 10.7194H17.7961L17.8267 9.76927C17.2444 10.5355 16.5088 10.842 15.4667 10.842C14.2407 10.842 13.4132 9.83056 13.4132 8.39005C13.4132 6.18329 14.8844 4.92667 17.367 4.92667C17.6428 4.92667 17.9493 4.95732 18.2865 4.98797C18.3478 4.68148 18.3784 4.55888 18.3784 4.40563C18.3784 3.82329 17.98 3.5781 16.9379 3.5781C16.2943 3.5781 15.5587 3.67005 15.0683 3.85394L14.7311 3.94589L14.5166 4.00719L14.8231 1.98433C15.9571 1.64719 16.6927 1.49394 17.5202 1.49394C19.4511 1.49394 20.4932 2.41342 20.4932 4.12979C20.4932 4.58953 20.4626 4.89602 20.3093 5.9381L19.8496 9.15628L19.7576 9.73862L19.6963 10.1984L19.6657 10.5355C19.6963 10.4742 19.6657 10.7194 19.6657 10.7194ZM55.0657 6.70433C54.8512 6.67368 54.7286 6.67368 54.5447 6.67368C53.2574 6.67368 52.6137 7.13342 52.6137 8.0529C52.6137 8.60459 52.9509 8.97238 53.4413 8.97238C54.3608 8.94173 55.0351 8.02225 55.0657 6.70433ZM56.6901 10.7194H54.8205L54.8511 9.76927C54.2688 10.5355 53.5332 10.842 52.4912 10.842C51.2652 10.842 50.4376 9.83056 50.4376 8.39005C50.4376 6.18329 51.9088 4.92667 54.3914 4.92667C54.6366 4.92667 54.9737 4.95732 55.3109 4.98797C55.3722 4.68148 55.4028 4.55888 55.4028 4.40563C55.4028 3.82329 55.0044 3.5781 53.9623 3.5781C53.3187 3.5781 52.5831 3.67005 52.0927 3.85394L51.7556 3.94589L51.541 4.00719L51.8475 1.98433C52.9815 1.64719 53.7171 1.49394 54.5447 1.49394C56.4756 1.49394 57.5176 2.41342 57.5176 4.12979C57.5176 4.58953 57.487 4.89602 57.3337 5.9381L56.874 9.12563L56.8127 9.70797L56.7514 10.1677L56.7208 10.4742L56.6901 10.7194ZM63.0039 1.64719C62.9426 1.61654 62.8506 1.61654 62.7893 1.61654C62.0538 1.61654 61.6247 2.01498 60.9197 3.08771L61.1343 1.70849H59.0808L57.7015 10.7194H59.9696C60.7971 5.20251 60.981 4.25238 62.0844 4.25238H62.2376C62.3909 3.3329 62.6974 2.47472 63.0958 1.64719H63.0039Z" fill="#E52727"/>
<path id="Vector_2" fill-rule="evenodd" clip-rule="evenodd" d="M53.5278 19.4534C53.5278 21.5069 52.8841 22.7022 51.9033 22.7022C51.1678 22.7329 50.7387 21.9054 50.7387 20.71C50.7387 19.2695 51.3823 17.6451 52.4244 17.6451C53.2519 17.6451 53.5278 18.5339 53.5278 19.4534ZM55.7652 19.4841C55.7652 17.216 54.6311 15.4383 52.547 15.4383C50.1257 15.4383 48.5319 17.5838 48.5319 20.7407C48.5319 23.0087 49.482 24.8783 51.7501 24.8783C54.0488 24.8783 55.7652 23.2539 55.7652 19.4841ZM49.2368 13.8752L48.8997 16.2965C48.1335 15.8674 47.6124 15.7142 47.0301 15.7142C45.467 15.7142 44.3636 17.4306 44.3636 19.8519C44.3636 21.5376 45.0992 22.549 46.3252 22.549C46.8462 22.549 47.4285 22.3651 48.1335 21.9667L47.7657 24.5106C46.9994 24.7557 46.4784 24.8477 45.8961 24.8477C43.628 24.8477 42.1875 23.0087 42.1875 20.0664C42.1875 16.1126 44.1491 13.3235 46.9381 13.3235C47.3059 13.3235 47.6124 13.3542 47.8883 13.4461L48.7465 13.6913C48.9917 13.7526 49.053 13.7833 49.2368 13.8752ZM35.2914 15.4996C35.2301 15.469 35.1381 15.469 35.0768 15.469C34.3719 15.469 34.0041 15.8674 33.3298 16.9402L33.5444 15.5609H31.6441L30.3568 24.5719H32.4716C33.2379 19.055 33.4218 18.1048 34.4332 18.1048C34.4945 18.1048 34.4945 18.1048 34.5865 18.1355C34.7704 17.0628 35.0462 16.2659 35.3833 15.5303L35.2914 15.4996ZM62.8145 24.5106H60.8223L60.9143 23.6217C60.3319 24.3267 59.7189 24.6332 58.9527 24.6332C57.4202 24.6332 56.4088 23.1313 56.4088 20.8939C56.4088 17.8903 57.9719 15.3464 59.8415 15.3464C60.6691 15.3464 61.282 15.7448 61.8644 16.603L62.3241 13.4461H64.4083L62.8145 24.5106ZM59.6883 22.3957C60.6997 22.3957 61.374 21.1391 61.374 19.3615C61.374 18.2274 60.9756 17.6145 60.24 17.6145C59.2898 17.6145 58.6155 18.8711 58.6155 20.6487C58.6155 21.7828 58.9833 22.3957 59.6883 22.3957ZM15.5226 24.4799C14.8176 24.7251 14.082 24.8477 13.3464 24.8477C10.9864 24.8477 9.76047 23.4685 9.76047 20.802C9.76047 17.7064 11.3236 15.4383 13.4384 15.4383C15.1854 15.4383 16.2888 16.695 16.2888 18.7178C16.2888 19.3615 16.1968 20.0357 16.0129 20.9552H11.8446C11.814 21.1085 11.814 21.1698 11.814 21.2311C11.814 22.2731 12.4576 22.7942 13.6836 22.7942C14.4498 22.7942 15.1241 22.6103 15.8597 22.2119L15.5226 24.4799ZM14.3272 19.1163C14.3272 18.9324 14.3579 18.7791 14.3579 18.6565C14.3579 17.9209 13.9901 17.4919 13.3464 17.4919C12.6722 17.4919 12.2124 18.0742 11.9979 19.1163H14.3272ZM40.5937 24.4799C39.8888 24.7251 39.1532 24.8477 38.4176 24.8477C36.0576 24.8477 34.8317 23.4685 34.8317 20.802C34.8317 17.7064 36.3948 15.4383 38.5096 15.4383C40.2566 15.4383 41.36 16.695 41.36 18.7178C41.36 19.3615 41.268 20.0357 41.0841 20.9552H36.8852C36.8545 21.1085 36.8545 21.1698 36.8545 21.2311C36.8545 22.2731 37.4981 22.7942 38.7241 22.7942C39.4904 22.7942 40.1646 22.6103 40.9002 22.2119L40.5937 24.4799ZM39.4291 19.1163C39.4597 18.9324 39.4597 18.7791 39.4597 18.6565C39.4597 17.9209 39.0919 17.4919 38.4483 17.4919C37.774 17.4919 37.3142 18.0742 37.0997 19.1163H39.4291ZM70.0171 24.4799C69.3122 24.7251 68.5766 24.8477 67.841 24.8477C65.481 24.8477 64.255 23.4685 64.255 20.802C64.255 17.7064 65.8182 15.4383 67.9636 15.4383C69.7106 15.4383 70.814 16.695 70.814 18.7178C70.814 19.3615 70.722 20.0357 70.5382 20.9552H66.3392C66.3085 21.1085 66.3085 21.1698 66.3085 21.2311C66.3085 22.2731 66.9522 22.7942 68.1781 22.7942C68.9444 22.7942 69.6187 22.6103 70.3543 22.2119L70.0171 24.4799ZM68.8218 19.1163C68.8218 18.9324 68.8524 18.7791 68.8524 18.6565C68.8524 17.9209 68.4846 17.4919 67.841 17.4919C67.1667 17.4919 66.707 18.0742 66.4924 19.1163H68.8218ZM9.27008 15.9287C8.87164 15.6529 8.2893 15.4077 7.52307 15.4077C6.66489 15.4077 5.9906 15.5916 5.9906 16.4804C5.9906 18.0742 9.08619 17.4919 9.08619 20.9246C9.08619 24.0508 7.03268 24.8783 5.19372 24.8783C4.36619 24.8783 3.41605 24.6025 2.71112 24.296L3.23216 21.9973C3.66125 22.3957 4.48878 22.6409 5.22437 22.6409C5.89865 22.6409 6.91008 22.457 6.91008 21.2924C6.91008 19.4841 3.8145 20.1583 3.8145 16.9708C3.8145 14.0591 5.62281 13.2009 7.40047 13.2009C8.38125 13.2009 9.33138 13.3542 9.85242 13.722L9.27008 15.9287ZM21.6831 24.4799C21.254 24.6944 20.6716 24.817 19.8135 24.817C17.9745 24.817 16.8405 22.9781 16.8405 20.7407C16.8405 17.7983 18.4955 15.469 20.9168 15.469C21.4379 15.469 22.2654 15.6835 22.909 16.0513L22.4493 18.1968C21.9896 17.8903 21.5298 17.7064 21.0394 17.7064C19.9054 17.7064 19.1085 18.7485 19.1085 20.5874C19.1085 21.6602 19.6909 22.5183 20.6103 22.5183C21.162 22.5183 21.5605 22.3957 22.0202 22.1199L21.6831 24.4799ZM29.5906 22.2119C29.468 22.9781 29.4067 23.775 29.3148 24.5412H27.2919L27.4452 23.1007H27.4145C26.7709 24.0815 26.1272 24.7557 24.9626 24.7557C23.7059 24.7557 23.001 23.4072 23.001 21.6602C23.001 21.0472 23.0316 20.71 23.1542 19.7906L23.7366 15.6222H26.0046L25.3916 19.8212C25.3303 20.2809 25.2384 20.71 25.2384 21.2004C25.2384 21.7215 25.4836 22.2732 26.0966 22.2119C27.0161 22.2119 27.5677 21.0778 27.721 19.7599L28.3646 15.6222H30.5407L29.5906 22.2119ZM72.1013 24.4186H71.7641V22.9474H71.2737V22.6103H72.5917V22.9474H72.1013V24.4186ZM74.3693 24.4186H74.0322V22.9168L73.7257 24.4186H73.3885L73.082 22.9168V24.4186H72.7449V22.6103H73.2659L73.5418 24.0508H73.5724L73.8483 22.6103H74.3387C74.3693 22.6103 74.3693 24.4186 74.3693 24.4186Z" fill="#F3AE12"/>
</g>
<defs>
<clipPath id="clip0_365_449">
<rect width="75.3369" height="25.6146" fill="white" transform="scale(1.00879)"/>
</clipPath>
</defs>
</svg>
