<svg width="830" height="830" viewBox="0 0 830 830" fill="none" xmlns="http://www.w3.org/2000/svg">
<g id="pattern" opacity="0.6" clip-path="url(#clip0_75_15807)">
<path id="Vector" d="M830 830H0V0H830V830Z" fill="white"/>
<path id="Vector_2" opacity="0.08" d="M37.3484 4.15039H4.14844V37.3504H37.3484V4.15039Z" fill="#B9B9B9"/>
<path id="Vector_3" opacity="0.14" d="M78.8484 4.15039H45.6484V37.3504H78.8484V4.15039Z" fill="#D7D7D7"/>
<path id="Vector_4" opacity="0.07" d="M120.348 4.15039H87.1484V37.3504H120.348V4.15039Z" fill="#CACACA"/>
<path id="Vector_5" opacity="0.1" d="M161.848 4.15039H128.648V37.3504H161.848V4.15039Z" fill="#D0D0D0"/>
<path id="Vector_6" opacity="0.11" d="M203.348 4.15039H170.148V37.3504H203.348V4.15039Z" fill="#D1D1D1"/>
<path id="Vector_7" opacity="0.15" d="M244.848 4.15039H211.648V37.3504H244.848V4.15039Z" fill="#BFBFBF"/>
<path id="Vector_8" opacity="0.15" d="M286.348 4.15039H253.148V37.3504H286.348V4.15039Z" fill="#C7C7C7"/>
<path id="Vector_9" opacity="0.12" d="M327.848 4.15039H294.648V37.3504H327.848V4.15039Z" fill="#B3B3B3"/>
<path id="Vector_10" opacity="0.13" d="M369.348 4.15039H336.148V37.3504H369.348V4.15039Z" fill="#AAAAAA"/>
<path id="Vector_11" opacity="0.05" d="M410.848 4.15039H377.648V37.3504H410.848V4.15039Z" fill="#ABABAB"/>
<path id="Vector_12" opacity="0.1" d="M452.348 4.15039H419.148V37.3504H452.348V4.15039Z" fill="#C0C0C0"/>
<path id="Vector_13" opacity="0.08" d="M493.848 4.15039H460.648V37.3504H493.848V4.15039Z" fill="#D0D0D0"/>
<path id="Vector_14" opacity="0.13" d="M535.348 4.15039H502.148V37.3504H535.348V4.15039Z" fill="#ADADAD"/>
<path id="Vector_15" opacity="0.07" d="M576.848 4.15039H543.648V37.3504H576.848V4.15039Z" fill="#ADADAD"/>
<path id="Vector_16" opacity="0.15" d="M618.348 4.15039H585.148V37.3504H618.348V4.15039Z" fill="#A2A2A2"/>
<path id="Vector_17" opacity="0.14" d="M659.848 4.15039H626.648V37.3504H659.848V4.15039Z" fill="#ABABAB"/>
<path id="Vector_18" opacity="0.14" d="M701.348 4.15039H668.148V37.3504H701.348V4.15039Z" fill="#C7C7C7"/>
<path id="Vector_19" opacity="0.05" d="M742.848 4.15039H709.648V37.3504H742.848V4.15039Z" fill="#C3C3C3"/>
<path id="Vector_20" opacity="0.09" d="M784.348 4.15039H751.148V37.3504H784.348V4.15039Z" fill="#ADADAD"/>
<path id="Vector_21" opacity="0.15" d="M825.848 4.15039H792.648V37.3504H825.848V4.15039Z" fill="#A9A9A9"/>
<path id="Vector_22" opacity="0.15" d="M37.3484 45.6504H4.14844V78.8504H37.3484V45.6504Z" fill="#A2A2A2"/>
<path id="Vector_23" opacity="0.07" d="M78.8484 45.6504H45.6484V78.8504H78.8484V45.6504Z" fill="#C3C3C3"/>
<path id="Vector_24" opacity="0.14" d="M120.348 45.6504H87.1484V78.8504H120.348V45.6504Z" fill="#B0B0B0"/>
<path id="Vector_25" opacity="0.07" d="M161.848 45.6504H128.648V78.8504H161.848V45.6504Z" fill="#A9A9A9"/>
<path id="Vector_26" opacity="0.13" d="M203.348 45.6504H170.148V78.8504H203.348V45.6504Z" fill="#A5A5A5"/>
<path id="Vector_27" opacity="0.09" d="M244.848 45.6504H211.648V78.8504H244.848V45.6504Z" fill="#A7A7A7"/>
<path id="Vector_28" opacity="0.1" d="M286.348 45.6504H253.148V78.8504H286.348V45.6504Z" fill="#CECECE"/>
<path id="Vector_29" opacity="0.14" d="M327.848 45.6504H294.648V78.8504H327.848V45.6504Z" fill="#C6C6C6"/>
<path id="Vector_30" opacity="0.11" d="M369.348 45.6504H336.148V78.8504H369.348V45.6504Z" fill="#C4C4C4"/>
<path id="Vector_31" opacity="0.05" d="M410.848 45.6504H377.648V78.8504H410.848V45.6504Z" fill="#A8A8A8"/>
<path id="Vector_32" opacity="0.09" d="M452.348 45.6504H419.148V78.8504H452.348V45.6504Z" fill="#BBBBBB"/>
<path id="Vector_33" opacity="0.13" d="M493.848 45.6504H460.648V78.8504H493.848V45.6504Z" fill="#D9D9D9"/>
<path id="Vector_34" opacity="0.15" d="M535.348 45.6504H502.148V78.8504H535.348V45.6504Z" fill="#D9D9D9"/>
<path id="Vector_35" opacity="0.15" d="M576.848 45.6504H543.648V78.8504H576.848V45.6504Z" fill="#BCBCBC"/>
<path id="Vector_36" opacity="0.12" d="M618.348 45.6504H585.148V78.8504H618.348V45.6504Z" fill="#B3B3B3"/>
<path id="Vector_37" opacity="0.1" d="M659.848 45.6504H626.648V78.8504H659.848V45.6504Z" fill="#C1C1C1"/>
<path id="Vector_38" opacity="0.11" d="M701.348 45.6504H668.148V78.8504H701.348V45.6504Z" fill="#ABABAB"/>
<path id="Vector_39" opacity="0.09" d="M742.848 45.6504H709.648V78.8504H742.848V45.6504Z" fill="#CACACA"/>
<path id="Vector_40" opacity="0.1" d="M784.348 45.6504H751.148V78.8504H784.348V45.6504Z" fill="#A8A8A8"/>
<path id="Vector_41" opacity="0.08" d="M825.848 45.6504H792.648V78.8504H825.848V45.6504Z" fill="#C4C4C4"/>
<path id="Vector_42" opacity="0.07" d="M37.3484 87.1504H4.14844V120.35H37.3484V87.1504Z" fill="#ABABAB"/>
<path id="Vector_43" opacity="0.07" d="M78.8484 87.1504H45.6484V120.35H78.8484V87.1504Z" fill="#B0B0B0"/>
<path id="Vector_44" opacity="0.09" d="M120.348 87.1504H87.1484V120.35H120.348V87.1504Z" fill="#B3B3B3"/>
<path id="Vector_45" opacity="0.09" d="M161.848 87.1504H128.648V120.35H161.848V87.1504Z" fill="#BCBCBC"/>
<path id="Vector_46" opacity="0.05" d="M203.348 87.1504H170.148V120.35H203.348V87.1504Z" fill="#B7B7B7"/>
<path id="Vector_47" opacity="0.15" d="M244.848 87.1504H211.648V120.35H244.848V87.1504Z" fill="#C7C7C7"/>
<path id="Vector_48" opacity="0.08" d="M286.348 87.1504H253.148V120.35H286.348V87.1504Z" fill="#A4A4A4"/>
<path id="Vector_49" opacity="0.14" d="M327.848 87.1504H294.648V120.35H327.848V87.1504Z" fill="#ADADAD"/>
<path id="Vector_50" opacity="0.11" d="M369.348 87.1504H336.148V120.35H369.348V87.1504Z" fill="#B4B4B4"/>
<path id="Vector_51" opacity="0.14" d="M410.848 87.1504H377.648V120.35H410.848V87.1504Z" fill="#A6A6A6"/>
<path id="Vector_52" opacity="0.09" d="M452.348 87.1504H419.148V120.35H452.348V87.1504Z" fill="#CECECE"/>
<path id="Vector_53" opacity="0.06" d="M493.848 87.1504H460.648V120.35H493.848V87.1504Z" fill="#A5A5A5"/>
<path id="Vector_54" opacity="0.09" d="M535.348 87.1504H502.148V120.35H535.348V87.1504Z" fill="#B8B8B8"/>
<path id="Vector_55" opacity="0.08" d="M576.848 87.1504H543.648V120.35H576.848V87.1504Z" fill="#CCCCCC"/>
<path id="Vector_56" opacity="0.06" d="M618.348 87.1504H585.148V120.35H618.348V87.1504Z" fill="#C5C5C5"/>
<path id="Vector_57" opacity="0.06" d="M659.848 87.1504H626.648V120.35H659.848V87.1504Z" fill="#A8A8A8"/>
<path id="Vector_58" opacity="0.09" d="M701.348 87.1504H668.148V120.35H701.348V87.1504Z" fill="#D5D5D5"/>
<path id="Vector_59" opacity="0.09" d="M742.848 87.1504H709.648V120.35H742.848V87.1504Z" fill="#A8A8A8"/>
<path id="Vector_60" opacity="0.13" d="M784.348 87.1504H751.148V120.35H784.348V87.1504Z" fill="#B0B0B0"/>
<path id="Vector_61" opacity="0.12" d="M825.848 87.1504H792.648V120.35H825.848V87.1504Z" fill="#C8C8C8"/>
<path id="Vector_62" opacity="0.15" d="M37.3484 128.65H4.14844V161.85H37.3484V128.65Z" fill="#D3D3D3"/>
<path id="Vector_63" opacity="0.09" d="M78.8484 128.65H45.6484V161.85H78.8484V128.65Z" fill="#B0B0B0"/>
<path id="Vector_64" opacity="0.14" d="M120.348 128.65H87.1484V161.85H120.348V128.65Z" fill="#CBCBCB"/>
<path id="Vector_65" opacity="0.11" d="M161.848 128.65H128.648V161.85H161.848V128.65Z" fill="#D1D1D1"/>
<path id="Vector_66" opacity="0.06" d="M203.348 128.65H170.148V161.85H203.348V128.65Z" fill="#B7B7B7"/>
<path id="Vector_67" opacity="0.12" d="M244.848 128.65H211.648V161.85H244.848V128.65Z" fill="#B1B1B1"/>
<path id="Vector_68" opacity="0.13" d="M286.348 128.65H253.148V161.85H286.348V128.65Z" fill="#CCCCCC"/>
<path id="Vector_69" opacity="0.1" d="M327.848 128.65H294.648V161.85H327.848V128.65Z" fill="#C4C4C4"/>
<path id="Vector_70" opacity="0.1" d="M369.348 128.65H336.148V161.85H369.348V128.65Z" fill="#A8A8A8"/>
<path id="Vector_71" opacity="0.08" d="M410.848 128.65H377.648V161.85H410.848V128.65Z" fill="#BCBCBC"/>
<path id="Vector_72" opacity="0.14" d="M452.348 128.65H419.148V161.85H452.348V128.65Z" fill="#CACACA"/>
<path id="Vector_73" opacity="0.14" d="M493.848 128.65H460.648V161.85H493.848V128.65Z" fill="#CBCBCB"/>
<path id="Vector_74" opacity="0.06" d="M535.348 128.65H502.148V161.85H535.348V128.65Z" fill="#D7D7D7"/>
<path id="Vector_75" opacity="0.08" d="M576.848 128.65H543.648V161.85H576.848V128.65Z" fill="#ADADAD"/>
<path id="Vector_76" opacity="0.09" d="M618.348 128.65H585.148V161.85H618.348V128.65Z" fill="#C3C3C3"/>
<path id="Vector_77" opacity="0.11" d="M659.848 128.65H626.648V161.85H659.848V128.65Z" fill="#A2A2A2"/>
<path id="Vector_78" opacity="0.08" d="M701.348 128.65H668.148V161.85H701.348V128.65Z" fill="#BABABA"/>
<path id="Vector_79" opacity="0.06" d="M742.848 128.65H709.648V161.85H742.848V128.65Z" fill="#B2B2B2"/>
<path id="Vector_80" opacity="0.1" d="M784.348 128.65H751.148V161.85H784.348V128.65Z" fill="#AAAAAA"/>
<path id="Vector_81" opacity="0.13" d="M825.848 128.65H792.648V161.85H825.848V128.65Z" fill="#BDBDBD"/>
<path id="Vector_82" opacity="0.13" d="M37.3484 170.15H4.14844V203.35H37.3484V170.15Z" fill="#C4C4C4"/>
<path id="Vector_83" opacity="0.14" d="M78.8484 170.15H45.6484V203.35H78.8484V170.15Z" fill="#B9B9B9"/>
<path id="Vector_84" opacity="0.13" d="M120.348 170.15H87.1484V203.35H120.348V170.15Z" fill="#D6D6D6"/>
<path id="Vector_85" opacity="0.06" d="M161.848 170.15H128.648V203.35H161.848V170.15Z" fill="#CECECE"/>
<path id="Vector_86" opacity="0.1" d="M203.348 170.15H170.148V203.35H203.348V170.15Z" fill="#B0B0B0"/>
<path id="Vector_87" opacity="0.12" d="M244.848 170.15H211.648V203.35H244.848V170.15Z" fill="#C4C4C4"/>
<path id="Vector_88" opacity="0.12" d="M286.348 170.15H253.148V203.35H286.348V170.15Z" fill="#C6C6C6"/>
<path id="Vector_89" opacity="0.14" d="M327.848 170.15H294.648V203.35H327.848V170.15Z" fill="#D5D5D5"/>
<path id="Vector_90" opacity="0.15" d="M369.348 170.15H336.148V203.35H369.348V170.15Z" fill="#B2B2B2"/>
<path id="Vector_91" opacity="0.14" d="M410.848 170.15H377.648V203.35H410.848V170.15Z" fill="#ABABAB"/>
<path id="Vector_92" opacity="0.05" d="M452.348 170.15H419.148V203.35H452.348V170.15Z" fill="#D8D8D8"/>
<path id="Vector_93" opacity="0.05" d="M493.848 170.15H460.648V203.35H493.848V170.15Z" fill="#A3A3A3"/>
<path id="Vector_94" opacity="0.13" d="M535.348 170.15H502.148V203.35H535.348V170.15Z" fill="#C2C2C2"/>
<path id="Vector_95" opacity="0.1" d="M576.848 170.15H543.648V203.35H576.848V170.15Z" fill="#C1C1C1"/>
<path id="Vector_96" opacity="0.12" d="M618.348 170.15H585.148V203.35H618.348V170.15Z" fill="#B2B2B2"/>
<path id="Vector_97" opacity="0.1" d="M659.848 170.15H626.648V203.35H659.848V170.15Z" fill="#D4D4D4"/>
<path id="Vector_98" opacity="0.07" d="M701.348 170.15H668.148V203.35H701.348V170.15Z" fill="#D6D6D6"/>
<path id="Vector_99" opacity="0.12" d="M742.848 170.15H709.648V203.35H742.848V170.15Z" fill="#AAAAAA"/>
<path id="Vector_100" opacity="0.13" d="M784.348 170.15H751.148V203.35H784.348V170.15Z" fill="#CFCFCF"/>
<path id="Vector_101" opacity="0.05" d="M825.848 170.15H792.648V203.35H825.848V170.15Z" fill="#CBCBCB"/>
<path id="Vector_102" opacity="0.06" d="M37.3484 211.65H4.14844V244.85H37.3484V211.65Z" fill="#B9B9B9"/>
<path id="Vector_103" opacity="0.1" d="M78.8484 211.65H45.6484V244.85H78.8484V211.65Z" fill="#A7A7A7"/>
<path id="Vector_104" opacity="0.05" d="M120.348 211.65H87.1484V244.85H120.348V211.65Z" fill="#CDCDCD"/>
<path id="Vector_105" opacity="0.09" d="M161.848 211.65H128.648V244.85H161.848V211.65Z" fill="#B5B5B5"/>
<path id="Vector_106" opacity="0.11" d="M203.348 211.65H170.148V244.85H203.348V211.65Z" fill="#C6C6C6"/>
<path id="Vector_107" opacity="0.08" d="M244.848 211.65H211.648V244.85H244.848V211.65Z" fill="#CCCCCC"/>
<path id="Vector_108" opacity="0.1" d="M286.348 211.65H253.148V244.85H286.348V211.65Z" fill="#A5A5A5"/>
<path id="Vector_109" opacity="0.1" d="M327.848 211.65H294.648V244.85H327.848V211.65Z" fill="#C6C6C6"/>
<path id="Vector_110" opacity="0.12" d="M369.348 211.65H336.148V244.85H369.348V211.65Z" fill="#C8C8C8"/>
<path id="Vector_111" opacity="0.08" d="M410.848 211.65H377.648V244.85H410.848V211.65Z" fill="#C2C2C2"/>
<path id="Vector_112" opacity="0.14" d="M452.348 211.65H419.148V244.85H452.348V211.65Z" fill="#C9C9C9"/>
<path id="Vector_113" opacity="0.14" d="M493.848 211.65H460.648V244.85H493.848V211.65Z" fill="#C3C3C3"/>
<path id="Vector_114" opacity="0.1" d="M535.348 211.65H502.148V244.85H535.348V211.65Z" fill="#CCCCCC"/>
<path id="Vector_115" opacity="0.13" d="M576.848 211.65H543.648V244.85H576.848V211.65Z" fill="#D7D7D7"/>
<path id="Vector_116" opacity="0.13" d="M618.348 211.65H585.148V244.85H618.348V211.65Z" fill="#B5B5B5"/>
<path id="Vector_117" opacity="0.1" d="M659.848 211.65H626.648V244.85H659.848V211.65Z" fill="#D2D2D2"/>
<path id="Vector_118" opacity="0.08" d="M701.348 211.65H668.148V244.85H701.348V211.65Z" fill="#D9D9D9"/>
<path id="Vector_119" opacity="0.08" d="M742.848 211.65H709.648V244.85H742.848V211.65Z" fill="#ADADAD"/>
<path id="Vector_120" opacity="0.1" d="M784.348 211.65H751.148V244.85H784.348V211.65Z" fill="#C9C9C9"/>
<path id="Vector_121" opacity="0.08" d="M825.848 211.65H792.648V244.85H825.848V211.65Z" fill="#C0C0C0"/>
<path id="Vector_122" opacity="0.1" d="M37.3484 253.15H4.14844V286.35H37.3484V253.15Z" fill="#CECECE"/>
<path id="Vector_123" opacity="0.12" d="M78.8484 253.15H45.6484V286.35H78.8484V253.15Z" fill="#A8A8A8"/>
<path id="Vector_124" opacity="0.09" d="M120.348 253.15H87.1484V286.35H120.348V253.15Z" fill="#C6C6C6"/>
<path id="Vector_125" opacity="0.06" d="M161.848 253.15H128.648V286.35H161.848V253.15Z" fill="#A5A5A5"/>
<path id="Vector_126" opacity="0.05" d="M203.348 253.15H170.148V286.35H203.348V253.15Z" fill="#C9C9C9"/>
<path id="Vector_127" opacity="0.08" d="M244.848 253.15H211.648V286.35H244.848V253.15Z" fill="#B2B2B2"/>
<path id="Vector_128" opacity="0.09" d="M286.348 253.15H253.148V286.35H286.348V253.15Z" fill="#CFCFCF"/>
<path id="Vector_129" opacity="0.07" d="M327.848 253.15H294.648V286.35H327.848V253.15Z" fill="#D5D5D5"/>
<path id="Vector_130" opacity="0.14" d="M369.348 253.15H336.148V286.35H369.348V253.15Z" fill="#C1C1C1"/>
<path id="Vector_131" opacity="0.06" d="M410.848 253.15H377.648V286.35H410.848V253.15Z" fill="#C2C2C2"/>
<path id="Vector_132" opacity="0.14" d="M452.348 253.15H419.148V286.35H452.348V253.15Z" fill="#C6C6C6"/>
<path id="Vector_133" opacity="0.1" d="M493.848 253.15H460.648V286.35H493.848V253.15Z" fill="#BDBDBD"/>
<path id="Vector_134" opacity="0.13" d="M535.348 253.15H502.148V286.35H535.348V253.15Z" fill="#BBBBBB"/>
<path id="Vector_135" opacity="0.13" d="M576.848 253.15H543.648V286.35H576.848V253.15Z" fill="#A3A3A3"/>
<path id="Vector_136" opacity="0.08" d="M618.348 253.15H585.148V286.35H618.348V253.15Z" fill="#D3D3D3"/>
<path id="Vector_137" opacity="0.07" d="M659.848 253.15H626.648V286.35H659.848V253.15Z" fill="#C0C0C0"/>
<path id="Vector_138" opacity="0.12" d="M701.348 253.15H668.148V286.35H701.348V253.15Z" fill="#C9C9C9"/>
<path id="Vector_139" opacity="0.08" d="M742.848 253.15H709.648V286.35H742.848V253.15Z" fill="#B6B6B6"/>
<path id="Vector_140" opacity="0.09" d="M784.348 253.15H751.148V286.35H784.348V253.15Z" fill="#D5D5D5"/>
<path id="Vector_141" opacity="0.11" d="M825.848 253.15H792.648V286.35H825.848V253.15Z" fill="#C4C4C4"/>
<path id="Vector_142" opacity="0.14" d="M37.3484 294.65H4.14844V327.85H37.3484V294.65Z" fill="#C8C8C8"/>
<path id="Vector_143" opacity="0.12" d="M78.8484 294.65H45.6484V327.85H78.8484V294.65Z" fill="#D0D0D0"/>
<path id="Vector_144" opacity="0.08" d="M120.348 294.65H87.1484V327.85H120.348V294.65Z" fill="#BCBCBC"/>
<path id="Vector_145" opacity="0.09" d="M161.848 294.65H128.648V327.85H161.848V294.65Z" fill="#A0A0A0"/>
<path id="Vector_146" opacity="0.06" d="M203.348 294.65H170.148V327.85H203.348V294.65Z" fill="#A6A6A6"/>
<path id="Vector_147" opacity="0.13" d="M244.848 294.65H211.648V327.85H244.848V294.65Z" fill="#B8B8B8"/>
<path id="Vector_148" opacity="0.11" d="M286.348 294.65H253.148V327.85H286.348V294.65Z" fill="#A8A8A8"/>
<path id="Vector_149" opacity="0.13" d="M327.848 294.65H294.648V327.85H327.848V294.65Z" fill="#B1B1B1"/>
<path id="Vector_150" opacity="0.1" d="M369.348 294.65H336.148V327.85H369.348V294.65Z" fill="#CCCCCC"/>
<path id="Vector_151" opacity="0.11" d="M410.848 294.65H377.648V327.85H410.848V294.65Z" fill="#C3C3C3"/>
<path id="Vector_152" opacity="0.1" d="M452.348 294.65H419.148V327.85H452.348V294.65Z" fill="#A1A1A1"/>
<path id="Vector_153" opacity="0.09" d="M493.848 294.65H460.648V327.85H493.848V294.65Z" fill="#B5B5B5"/>
<path id="Vector_154" opacity="0.06" d="M535.348 294.65H502.148V327.85H535.348V294.65Z" fill="#AAAAAA"/>
<path id="Vector_155" opacity="0.1" d="M576.848 294.65H543.648V327.85H576.848V294.65Z" fill="#A4A4A4"/>
<path id="Vector_156" opacity="0.08" d="M618.348 294.65H585.148V327.85H618.348V294.65Z" fill="#BABABA"/>
<path id="Vector_157" opacity="0.05" d="M659.848 294.65H626.648V327.85H659.848V294.65Z" fill="#A5A5A5"/>
<path id="Vector_158" opacity="0.06" d="M701.348 294.65H668.148V327.85H701.348V294.65Z" fill="#CCCCCC"/>
<path id="Vector_159" opacity="0.1" d="M742.848 294.65H709.648V327.85H742.848V294.65Z" fill="#A8A8A8"/>
<path id="Vector_160" opacity="0.07" d="M784.348 294.65H751.148V327.85H784.348V294.65Z" fill="#D4D4D4"/>
<path id="Vector_161" opacity="0.05" d="M825.848 294.65H792.648V327.85H825.848V294.65Z" fill="#A5A5A5"/>
<path id="Vector_162" opacity="0.07" d="M37.3484 336.15H4.14844V369.35H37.3484V336.15Z" fill="#C4C4C4"/>
<path id="Vector_163" opacity="0.06" d="M78.8484 336.15H45.6484V369.35H78.8484V336.15Z" fill="#A2A2A2"/>
<path id="Vector_164" opacity="0.08" d="M120.348 336.15H87.1484V369.35H120.348V336.15Z" fill="#C5C5C5"/>
<path id="Vector_165" opacity="0.1" d="M161.848 336.15H128.648V369.35H161.848V336.15Z" fill="#C5C5C5"/>
<path id="Vector_166" opacity="0.12" d="M203.348 336.15H170.148V369.35H203.348V336.15Z" fill="#D7D7D7"/>
<path id="Vector_167" opacity="0.14" d="M244.848 336.15H211.648V369.35H244.848V336.15Z" fill="#C7C7C7"/>
<path id="Vector_168" opacity="0.09" d="M286.348 336.15H253.148V369.35H286.348V336.15Z" fill="#D2D2D2"/>
<path id="Vector_169" opacity="0.09" d="M327.848 336.15H294.648V369.35H327.848V336.15Z" fill="#CFCFCF"/>
<path id="Vector_170" opacity="0.12" d="M369.348 336.15H336.148V369.35H369.348V336.15Z" fill="#C1C1C1"/>
<path id="Vector_171" opacity="0.15" d="M410.848 336.15H377.648V369.35H410.848V336.15Z" fill="#BDBDBD"/>
<path id="Vector_172" opacity="0.14" d="M452.348 336.15H419.148V369.35H452.348V336.15Z" fill="#BCBCBC"/>
<path id="Vector_173" opacity="0.12" d="M493.848 336.15H460.648V369.35H493.848V336.15Z" fill="#AFAFAF"/>
<path id="Vector_174" opacity="0.08" d="M535.348 336.15H502.148V369.35H535.348V336.15Z" fill="#CFCFCF"/>
<path id="Vector_175" opacity="0.11" d="M576.848 336.15H543.648V369.35H576.848V336.15Z" fill="#C6C6C6"/>
<path id="Vector_176" opacity="0.05" d="M618.348 336.15H585.148V369.35H618.348V336.15Z" fill="#ACACAC"/>
<path id="Vector_177" opacity="0.11" d="M659.848 336.15H626.648V369.35H659.848V336.15Z" fill="#A7A7A7"/>
<path id="Vector_178" opacity="0.13" d="M701.348 336.15H668.148V369.35H701.348V336.15Z" fill="#AEAEAE"/>
<path id="Vector_179" opacity="0.08" d="M742.848 336.15H709.648V369.35H742.848V336.15Z" fill="#B9B9B9"/>
<path id="Vector_180" opacity="0.09" d="M784.348 336.15H751.148V369.35H784.348V336.15Z" fill="#C8C8C8"/>
<path id="Vector_181" opacity="0.09" d="M825.848 336.15H792.648V369.35H825.848V336.15Z" fill="#C3C3C3"/>
<path id="Vector_182" opacity="0.11" d="M37.3484 377.65H4.14844V410.85H37.3484V377.65Z" fill="#C3C3C3"/>
<path id="Vector_183" opacity="0.08" d="M78.8484 377.65H45.6484V410.85H78.8484V377.65Z" fill="#A5A5A5"/>
<path id="Vector_184" opacity="0.06" d="M120.348 377.65H87.1484V410.85H120.348V377.65Z" fill="#D9D9D9"/>
<path id="Vector_185" opacity="0.06" d="M161.848 377.65H128.648V410.85H161.848V377.65Z" fill="#A3A3A3"/>
<path id="Vector_186" opacity="0.07" d="M203.348 377.65H170.148V410.85H203.348V377.65Z" fill="#D7D7D7"/>
<path id="Vector_187" opacity="0.1" d="M244.848 377.65H211.648V410.85H244.848V377.65Z" fill="#ACACAC"/>
<path id="Vector_188" opacity="0.14" d="M286.348 377.65H253.148V410.85H286.348V377.65Z" fill="#B1B1B1"/>
<path id="Vector_189" opacity="0.05" d="M327.848 377.65H294.648V410.85H327.848V377.65Z" fill="#A4A4A4"/>
<path id="Vector_190" opacity="0.09" d="M369.348 377.65H336.148V410.85H369.348V377.65Z" fill="#D0D0D0"/>
<path id="Vector_191" opacity="0.11" d="M410.848 377.65H377.648V410.85H410.848V377.65Z" fill="#C9C9C9"/>
<path id="Vector_192" opacity="0.08" d="M452.348 377.65H419.148V410.85H452.348V377.65Z" fill="#B0B0B0"/>
<path id="Vector_193" opacity="0.12" d="M493.848 377.65H460.648V410.85H493.848V377.65Z" fill="#CFCFCF"/>
<path id="Vector_194" opacity="0.14" d="M535.348 377.65H502.148V410.85H535.348V377.65Z" fill="#D3D3D3"/>
<path id="Vector_195" opacity="0.09" d="M576.848 377.65H543.648V410.85H576.848V377.65Z" fill="#DADADA"/>
<path id="Vector_196" opacity="0.05" d="M618.348 377.65H585.148V410.85H618.348V377.65Z" fill="#CBCBCB"/>
<path id="Vector_197" opacity="0.1" d="M659.848 377.65H626.648V410.85H659.848V377.65Z" fill="#CCCCCC"/>
<path id="Vector_198" opacity="0.1" d="M701.348 377.65H668.148V410.85H701.348V377.65Z" fill="#CCCCCC"/>
<path id="Vector_199" opacity="0.05" d="M742.848 377.65H709.648V410.85H742.848V377.65Z" fill="#CBCBCB"/>
<path id="Vector_200" opacity="0.1" d="M784.348 377.65H751.148V410.85H784.348V377.65Z" fill="#CFCFCF"/>
<path id="Vector_201" opacity="0.1" d="M825.848 377.65H792.648V410.85H825.848V377.65Z" fill="#B5B5B5"/>
<path id="Vector_202" opacity="0.06" d="M37.3484 419.15H4.14844V452.35H37.3484V419.15Z" fill="#A8A8A8"/>
<path id="Vector_203" opacity="0.05" d="M78.8484 419.15H45.6484V452.35H78.8484V419.15Z" fill="#CECECE"/>
<path id="Vector_204" opacity="0.12" d="M120.348 419.15H87.1484V452.35H120.348V419.15Z" fill="#D7D7D7"/>
<path id="Vector_205" opacity="0.1" d="M161.848 419.15H128.648V452.35H161.848V419.15Z" fill="#CCCCCC"/>
<path id="Vector_206" opacity="0.14" d="M203.348 419.15H170.148V452.35H203.348V419.15Z" fill="#ADADAD"/>
<path id="Vector_207" opacity="0.13" d="M244.848 419.15H211.648V452.35H244.848V419.15Z" fill="#C3C3C3"/>
<path id="Vector_208" opacity="0.11" d="M286.348 419.15H253.148V452.35H286.348V419.15Z" fill="#ACACAC"/>
<path id="Vector_209" opacity="0.12" d="M327.848 419.15H294.648V452.35H327.848V419.15Z" fill="#A7A7A7"/>
<path id="Vector_210" opacity="0.09" d="M369.348 419.15H336.148V452.35H369.348V419.15Z" fill="#D0D0D0"/>
<path id="Vector_211" opacity="0.06" d="M410.848 419.15H377.648V452.35H410.848V419.15Z" fill="#A6A6A6"/>
<path id="Vector_212" opacity="0.06" d="M452.348 419.15H419.148V452.35H452.348V419.15Z" fill="#A3A3A3"/>
<path id="Vector_213" opacity="0.06" d="M493.848 419.15H460.648V452.35H493.848V419.15Z" fill="#A7A7A7"/>
<path id="Vector_214" opacity="0.1" d="M535.348 419.15H502.148V452.35H535.348V419.15Z" fill="#B4B4B4"/>
<path id="Vector_215" opacity="0.1" d="M576.848 419.15H543.648V452.35H576.848V419.15Z" fill="#CDCDCD"/>
<path id="Vector_216" opacity="0.07" d="M618.348 419.15H585.148V452.35H618.348V419.15Z" fill="#AAAAAA"/>
<path id="Vector_217" opacity="0.12" d="M659.848 419.15H626.648V452.35H659.848V419.15Z" fill="#C5C5C5"/>
<path id="Vector_218" opacity="0.07" d="M701.348 419.15H668.148V452.35H701.348V419.15Z" fill="#BCBCBC"/>
<path id="Vector_219" opacity="0.06" d="M742.848 419.15H709.648V452.35H742.848V419.15Z" fill="#A1A1A1"/>
<path id="Vector_220" opacity="0.09" d="M784.348 419.15H751.148V452.35H784.348V419.15Z" fill="#B0B0B0"/>
<path id="Vector_221" opacity="0.08" d="M825.848 419.15H792.648V452.35H825.848V419.15Z" fill="#A1A1A1"/>
<path id="Vector_222" opacity="0.1" d="M37.3484 460.65H4.14844V493.85H37.3484V460.65Z" fill="#ABABAB"/>
<path id="Vector_223" opacity="0.15" d="M78.8484 460.65H45.6484V493.85H78.8484V460.65Z" fill="#BFBFBF"/>
<path id="Vector_224" opacity="0.11" d="M120.348 460.65H87.1484V493.85H120.348V460.65Z" fill="#B7B7B7"/>
<path id="Vector_225" opacity="0.11" d="M161.848 460.65H128.648V493.85H161.848V460.65Z" fill="#CECECE"/>
<path id="Vector_226" opacity="0.08" d="M203.348 460.65H170.148V493.85H203.348V460.65Z" fill="#BABABA"/>
<path id="Vector_227" opacity="0.13" d="M244.848 460.65H211.648V493.85H244.848V460.65Z" fill="#A1A1A1"/>
<path id="Vector_228" opacity="0.06" d="M286.348 460.65H253.148V493.85H286.348V460.65Z" fill="#D4D4D4"/>
<path id="Vector_229" opacity="0.08" d="M327.848 460.65H294.648V493.85H327.848V460.65Z" fill="#BFBFBF"/>
<path id="Vector_230" opacity="0.1" d="M369.348 460.65H336.148V493.85H369.348V460.65Z" fill="#B6B6B6"/>
<path id="Vector_231" opacity="0.08" d="M410.848 460.65H377.648V493.85H410.848V460.65Z" fill="#A5A5A5"/>
<path id="Vector_232" opacity="0.06" d="M452.348 460.65H419.148V493.85H452.348V460.65Z" fill="#A3A3A3"/>
<path id="Vector_233" opacity="0.11" d="M493.848 460.65H460.648V493.85H493.848V460.65Z" fill="#CCCCCC"/>
<path id="Vector_234" opacity="0.07" d="M535.348 460.65H502.148V493.85H535.348V460.65Z" fill="#C6C6C6"/>
<path id="Vector_235" opacity="0.1" d="M576.848 460.65H543.648V493.85H576.848V460.65Z" fill="#ABABAB"/>
<path id="Vector_236" opacity="0.08" d="M618.348 460.65H585.148V493.85H618.348V460.65Z" fill="#A5A5A5"/>
<path id="Vector_237" opacity="0.12" d="M659.848 460.65H626.648V493.85H659.848V460.65Z" fill="#D5D5D5"/>
<path id="Vector_238" opacity="0.09" d="M701.348 460.65H668.148V493.85H701.348V460.65Z" fill="#A1A1A1"/>
<path id="Vector_239" opacity="0.06" d="M742.848 460.65H709.648V493.85H742.848V460.65Z" fill="#C8C8C8"/>
<path id="Vector_240" opacity="0.15" d="M784.348 460.65H751.148V493.85H784.348V460.65Z" fill="#C2C2C2"/>
<path id="Vector_241" opacity="0.06" d="M825.848 460.65H792.648V493.85H825.848V460.65Z" fill="#C9C9C9"/>
<path id="Vector_242" opacity="0.1" d="M37.3484 502.15H4.14844V535.35H37.3484V502.15Z" fill="#B1B1B1"/>
<path id="Vector_243" opacity="0.07" d="M78.8484 502.15H45.6484V535.35H78.8484V502.15Z" fill="#A6A6A6"/>
<path id="Vector_244" opacity="0.13" d="M120.348 502.15H87.1484V535.35H120.348V502.15Z" fill="#CACACA"/>
<path id="Vector_245" opacity="0.09" d="M161.848 502.15H128.648V535.35H161.848V502.15Z" fill="#CACACA"/>
<path id="Vector_246" opacity="0.05" d="M203.348 502.15H170.148V535.35H203.348V502.15Z" fill="#CCCCCC"/>
<path id="Vector_247" opacity="0.07" d="M244.848 502.15H211.648V535.35H244.848V502.15Z" fill="#A3A3A3"/>
<path id="Vector_248" opacity="0.14" d="M286.348 502.15H253.148V535.35H286.348V502.15Z" fill="#AAAAAA"/>
<path id="Vector_249" opacity="0.14" d="M327.848 502.15H294.648V535.35H327.848V502.15Z" fill="#B6B6B6"/>
<path id="Vector_250" opacity="0.12" d="M369.348 502.15H336.148V535.35H369.348V502.15Z" fill="#CFCFCF"/>
<path id="Vector_251" opacity="0.06" d="M410.848 502.15H377.648V535.35H410.848V502.15Z" fill="#C0C0C0"/>
<path id="Vector_252" opacity="0.11" d="M452.348 502.15H419.148V535.35H452.348V502.15Z" fill="#D8D8D8"/>
<path id="Vector_253" opacity="0.06" d="M493.848 502.15H460.648V535.35H493.848V502.15Z" fill="#D2D2D2"/>
<path id="Vector_254" opacity="0.07" d="M535.348 502.15H502.148V535.35H535.348V502.15Z" fill="#CECECE"/>
<path id="Vector_255" opacity="0.11" d="M576.848 502.15H543.648V535.35H576.848V502.15Z" fill="#D2D2D2"/>
<path id="Vector_256" opacity="0.08" d="M618.348 502.15H585.148V535.35H618.348V502.15Z" fill="#C3C3C3"/>
<path id="Vector_257" opacity="0.1" d="M659.848 502.15H626.648V535.35H659.848V502.15Z" fill="#ABABAB"/>
<path id="Vector_258" opacity="0.11" d="M701.348 502.15H668.148V535.35H701.348V502.15Z" fill="#BABABA"/>
<path id="Vector_259" opacity="0.09" d="M742.848 502.15H709.648V535.35H742.848V502.15Z" fill="#CCCCCC"/>
<path id="Vector_260" opacity="0.08" d="M784.348 502.15H751.148V535.35H784.348V502.15Z" fill="#CDCDCD"/>
<path id="Vector_261" opacity="0.08" d="M825.848 502.15H792.648V535.35H825.848V502.15Z" fill="#A7A7A7"/>
<path id="Vector_262" opacity="0.15" d="M37.3484 543.65H4.14844V576.85H37.3484V543.65Z" fill="#B8B8B8"/>
<path id="Vector_263" opacity="0.12" d="M78.8484 543.65H45.6484V576.85H78.8484V543.65Z" fill="#D2D2D2"/>
<path id="Vector_264" opacity="0.07" d="M120.348 543.65H87.1484V576.85H120.348V543.65Z" fill="#CFCFCF"/>
<path id="Vector_265" opacity="0.07" d="M161.848 543.65H128.648V576.85H161.848V543.65Z" fill="#C1C1C1"/>
<path id="Vector_266" opacity="0.15" d="M203.348 543.65H170.148V576.85H203.348V543.65Z" fill="#D0D0D0"/>
<path id="Vector_267" opacity="0.12" d="M244.848 543.65H211.648V576.85H244.848V543.65Z" fill="#CFCFCF"/>
<path id="Vector_268" opacity="0.08" d="M286.348 543.65H253.148V576.85H286.348V543.65Z" fill="#B3B3B3"/>
<path id="Vector_269" opacity="0.05" d="M327.848 543.65H294.648V576.85H327.848V543.65Z" fill="#AEAEAE"/>
<path id="Vector_270" opacity="0.05" d="M369.348 543.65H336.148V576.85H369.348V543.65Z" fill="#D5D5D5"/>
<path id="Vector_271" opacity="0.14" d="M410.848 543.65H377.648V576.85H410.848V543.65Z" fill="#D4D4D4"/>
<path id="Vector_272" opacity="0.12" d="M452.348 543.65H419.148V576.85H452.348V543.65Z" fill="#A1A1A1"/>
<path id="Vector_273" opacity="0.06" d="M493.848 543.65H460.648V576.85H493.848V543.65Z" fill="#A1A1A1"/>
<path id="Vector_274" opacity="0.15" d="M535.348 543.65H502.148V576.85H535.348V543.65Z" fill="#ACACAC"/>
<path id="Vector_275" opacity="0.14" d="M576.848 543.65H543.648V576.85H576.848V543.65Z" fill="#A1A1A1"/>
<path id="Vector_276" opacity="0.06" d="M618.348 543.65H585.148V576.85H618.348V543.65Z" fill="#B4B4B4"/>
<path id="Vector_277" opacity="0.14" d="M659.848 543.65H626.648V576.85H659.848V543.65Z" fill="#C4C4C4"/>
<path id="Vector_278" opacity="0.11" d="M701.348 543.65H668.148V576.85H701.348V543.65Z" fill="#BABABA"/>
<path id="Vector_279" opacity="0.07" d="M742.848 543.65H709.648V576.85H742.848V543.65Z" fill="#C7C7C7"/>
<path id="Vector_280" opacity="0.15" d="M784.348 543.65H751.148V576.85H784.348V543.65Z" fill="#B3B3B3"/>
<path id="Vector_281" opacity="0.08" d="M825.848 543.65H792.648V576.85H825.848V543.65Z" fill="#B7B7B7"/>
<path id="Vector_282" opacity="0.12" d="M37.3484 585.15H4.14844V618.35H37.3484V585.15Z" fill="#A5A5A5"/>
<path id="Vector_283" opacity="0.08" d="M78.8484 585.15H45.6484V618.35H78.8484V585.15Z" fill="#C4C4C4"/>
<path id="Vector_284" opacity="0.12" d="M120.348 585.15H87.1484V618.35H120.348V585.15Z" fill="#A3A3A3"/>
<path id="Vector_285" opacity="0.12" d="M161.848 585.15H128.648V618.35H161.848V585.15Z" fill="#D2D2D2"/>
<path id="Vector_286" opacity="0.09" d="M203.348 585.15H170.148V618.35H203.348V585.15Z" fill="#CECECE"/>
<path id="Vector_287" opacity="0.1" d="M244.848 585.15H211.648V618.35H244.848V585.15Z" fill="#D5D5D5"/>
<path id="Vector_288" opacity="0.05" d="M286.348 585.15H253.148V618.35H286.348V585.15Z" fill="#A8A8A8"/>
<path id="Vector_289" opacity="0.13" d="M327.848 585.15H294.648V618.35H327.848V585.15Z" fill="#AAAAAA"/>
<path id="Vector_290" opacity="0.08" d="M369.348 585.15H336.148V618.35H369.348V585.15Z" fill="#A1A1A1"/>
<path id="Vector_291" opacity="0.13" d="M410.848 585.15H377.648V618.35H410.848V585.15Z" fill="#A1A1A1"/>
<path id="Vector_292" opacity="0.09" d="M452.348 585.15H419.148V618.35H452.348V585.15Z" fill="#D1D1D1"/>
<path id="Vector_293" opacity="0.08" d="M493.848 585.15H460.648V618.35H493.848V585.15Z" fill="#B1B1B1"/>
<path id="Vector_294" opacity="0.09" d="M535.348 585.15H502.148V618.35H535.348V585.15Z" fill="#D3D3D3"/>
<path id="Vector_295" opacity="0.13" d="M576.848 585.15H543.648V618.35H576.848V585.15Z" fill="#B3B3B3"/>
<path id="Vector_296" opacity="0.06" d="M618.348 585.15H585.148V618.35H618.348V585.15Z" fill="#B7B7B7"/>
<path id="Vector_297" opacity="0.11" d="M659.848 585.15H626.648V618.35H659.848V585.15Z" fill="#CFCFCF"/>
<path id="Vector_298" opacity="0.06" d="M701.348 585.15H668.148V618.35H701.348V585.15Z" fill="#A7A7A7"/>
<path id="Vector_299" opacity="0.08" d="M742.848 585.15H709.648V618.35H742.848V585.15Z" fill="#B7B7B7"/>
<path id="Vector_300" opacity="0.14" d="M784.348 585.15H751.148V618.35H784.348V585.15Z" fill="#B0B0B0"/>
<path id="Vector_301" opacity="0.08" d="M825.848 585.15H792.648V618.35H825.848V585.15Z" fill="#AEAEAE"/>
<path id="Vector_302" opacity="0.14" d="M37.3484 626.65H4.14844V659.85H37.3484V626.65Z" fill="#B0B0B0"/>
<path id="Vector_303" opacity="0.1" d="M78.8484 626.65H45.6484V659.85H78.8484V626.65Z" fill="#CBCBCB"/>
<path id="Vector_304" opacity="0.1" d="M120.348 626.65H87.1484V659.85H120.348V626.65Z" fill="#B4B4B4"/>
<path id="Vector_305" opacity="0.08" d="M161.848 626.65H128.648V659.85H161.848V626.65Z" fill="#C5C5C5"/>
<path id="Vector_306" opacity="0.14" d="M203.348 626.65H170.148V659.85H203.348V626.65Z" fill="#B3B3B3"/>
<path id="Vector_307" opacity="0.12" d="M244.848 626.65H211.648V659.85H244.848V626.65Z" fill="#BDBDBD"/>
<path id="Vector_308" opacity="0.13" d="M286.348 626.65H253.148V659.85H286.348V626.65Z" fill="#D5D5D5"/>
<path id="Vector_309" opacity="0.09" d="M327.848 626.65H294.648V659.85H327.848V626.65Z" fill="#CACACA"/>
<path id="Vector_310" opacity="0.06" d="M369.348 626.65H336.148V659.85H369.348V626.65Z" fill="#D4D4D4"/>
<path id="Vector_311" opacity="0.06" d="M410.848 626.65H377.648V659.85H410.848V626.65Z" fill="#B2B2B2"/>
<path id="Vector_312" opacity="0.09" d="M452.348 626.65H419.148V659.85H452.348V626.65Z" fill="#CACACA"/>
<path id="Vector_313" opacity="0.11" d="M493.848 626.65H460.648V659.85H493.848V626.65Z" fill="#B4B4B4"/>
<path id="Vector_314" opacity="0.14" d="M535.348 626.65H502.148V659.85H535.348V626.65Z" fill="#B1B1B1"/>
<path id="Vector_315" opacity="0.06" d="M576.848 626.65H543.648V659.85H576.848V626.65Z" fill="#D7D7D7"/>
<path id="Vector_316" opacity="0.08" d="M618.348 626.65H585.148V659.85H618.348V626.65Z" fill="#B6B6B6"/>
<path id="Vector_317" opacity="0.09" d="M659.848 626.65H626.648V659.85H659.848V626.65Z" fill="#D4D4D4"/>
<path id="Vector_318" opacity="0.05" d="M701.348 626.65H668.148V659.85H701.348V626.65Z" fill="#A5A5A5"/>
<path id="Vector_319" opacity="0.06" d="M742.848 626.65H709.648V659.85H742.848V626.65Z" fill="#B5B5B5"/>
<path id="Vector_320" opacity="0.13" d="M784.348 626.65H751.148V659.85H784.348V626.65Z" fill="#A8A8A8"/>
<path id="Vector_321" opacity="0.1" d="M825.848 626.65H792.648V659.85H825.848V626.65Z" fill="#CCCCCC"/>
<path id="Vector_322" opacity="0.05" d="M37.3484 668.15H4.14844V701.35H37.3484V668.15Z" fill="#BDBDBD"/>
<path id="Vector_323" opacity="0.1" d="M78.8484 668.15H45.6484V701.35H78.8484V668.15Z" fill="#A2A2A2"/>
<path id="Vector_324" opacity="0.07" d="M120.348 668.15H87.1484V701.35H120.348V668.15Z" fill="#A3A3A3"/>
<path id="Vector_325" opacity="0.15" d="M161.848 668.15H128.648V701.35H161.848V668.15Z" fill="#B9B9B9"/>
<path id="Vector_326" opacity="0.07" d="M203.348 668.15H170.148V701.35H203.348V668.15Z" fill="#C1C1C1"/>
<path id="Vector_327" opacity="0.07" d="M244.848 668.15H211.648V701.35H244.848V668.15Z" fill="#A9A9A9"/>
<path id="Vector_328" opacity="0.11" d="M286.348 668.15H253.148V701.35H286.348V668.15Z" fill="#BBBBBB"/>
<path id="Vector_329" opacity="0.08" d="M327.848 668.15H294.648V701.35H327.848V668.15Z" fill="#A0A0A0"/>
<path id="Vector_330" opacity="0.13" d="M369.348 668.15H336.148V701.35H369.348V668.15Z" fill="#D4D4D4"/>
<path id="Vector_331" opacity="0.08" d="M410.848 668.15H377.648V701.35H410.848V668.15Z" fill="#C7C7C7"/>
<path id="Vector_332" opacity="0.1" d="M452.348 668.15H419.148V701.35H452.348V668.15Z" fill="#B2B2B2"/>
<path id="Vector_333" opacity="0.08" d="M493.848 668.15H460.648V701.35H493.848V668.15Z" fill="#ADADAD"/>
<path id="Vector_334" opacity="0.1" d="M535.348 668.15H502.148V701.35H535.348V668.15Z" fill="#B6B6B6"/>
<path id="Vector_335" opacity="0.14" d="M576.848 668.15H543.648V701.35H576.848V668.15Z" fill="#C2C2C2"/>
<path id="Vector_336" opacity="0.12" d="M618.348 668.15H585.148V701.35H618.348V668.15Z" fill="#B7B7B7"/>
<path id="Vector_337" opacity="0.13" d="M659.848 668.15H626.648V701.35H659.848V668.15Z" fill="#BFBFBF"/>
<path id="Vector_338" opacity="0.09" d="M701.348 668.15H668.148V701.35H701.348V668.15Z" fill="#BBBBBB"/>
<path id="Vector_339" opacity="0.09" d="M742.848 668.15H709.648V701.35H742.848V668.15Z" fill="#BFBFBF"/>
<path id="Vector_340" opacity="0.11" d="M784.348 668.15H751.148V701.35H784.348V668.15Z" fill="#D4D4D4"/>
<path id="Vector_341" opacity="0.1" d="M825.848 668.15H792.648V701.35H825.848V668.15Z" fill="#C6C6C6"/>
<path id="Vector_342" opacity="0.08" d="M37.3484 709.65H4.14844V742.85H37.3484V709.65Z" fill="#CCCCCC"/>
<path id="Vector_343" opacity="0.08" d="M78.8484 709.65H45.6484V742.85H78.8484V709.65Z" fill="#D1D1D1"/>
<path id="Vector_344" opacity="0.13" d="M120.348 709.65H87.1484V742.85H120.348V709.65Z" fill="#A6A6A6"/>
<path id="Vector_345" opacity="0.08" d="M161.848 709.65H128.648V742.85H161.848V709.65Z" fill="#B2B2B2"/>
<path id="Vector_346" opacity="0.11" d="M203.348 709.65H170.148V742.85H203.348V709.65Z" fill="#ABABAB"/>
<path id="Vector_347" opacity="0.06" d="M244.848 709.65H211.648V742.85H244.848V709.65Z" fill="#D9D9D9"/>
<path id="Vector_348" opacity="0.07" d="M286.348 709.65H253.148V742.85H286.348V709.65Z" fill="#A3A3A3"/>
<path id="Vector_349" opacity="0.11" d="M327.848 709.65H294.648V742.85H327.848V709.65Z" fill="#C0C0C0"/>
<path id="Vector_350" opacity="0.11" d="M369.348 709.65H336.148V742.85H369.348V709.65Z" fill="#D0D0D0"/>
<path id="Vector_351" opacity="0.15" d="M410.848 709.65H377.648V742.85H410.848V709.65Z" fill="#BEBEBE"/>
<path id="Vector_352" opacity="0.07" d="M452.348 709.65H419.148V742.85H452.348V709.65Z" fill="#CFCFCF"/>
<path id="Vector_353" opacity="0.13" d="M493.848 709.65H460.648V742.85H493.848V709.65Z" fill="#C0C0C0"/>
<path id="Vector_354" opacity="0.1" d="M535.348 709.65H502.148V742.85H535.348V709.65Z" fill="#C4C4C4"/>
<path id="Vector_355" opacity="0.12" d="M576.848 709.65H543.648V742.85H576.848V709.65Z" fill="#B7B7B7"/>
<path id="Vector_356" opacity="0.07" d="M618.348 709.65H585.148V742.85H618.348V709.65Z" fill="#A3A3A3"/>
<path id="Vector_357" opacity="0.05" d="M659.848 709.65H626.648V742.85H659.848V709.65Z" fill="#CFCFCF"/>
<path id="Vector_358" opacity="0.1" d="M701.348 709.65H668.148V742.85H701.348V709.65Z" fill="#D3D3D3"/>
<path id="Vector_359" opacity="0.05" d="M742.848 709.65H709.648V742.85H742.848V709.65Z" fill="#B7B7B7"/>
<path id="Vector_360" opacity="0.13" d="M784.348 709.65H751.148V742.85H784.348V709.65Z" fill="#A7A7A7"/>
<path id="Vector_361" opacity="0.1" d="M825.848 709.65H792.648V742.85H825.848V709.65Z" fill="#A4A4A4"/>
<path id="Vector_362" opacity="0.06" d="M37.3484 751.15H4.14844V784.35H37.3484V751.15Z" fill="#BFBFBF"/>
<path id="Vector_363" opacity="0.13" d="M78.8484 751.15H45.6484V784.35H78.8484V751.15Z" fill="#A1A1A1"/>
<path id="Vector_364" opacity="0.07" d="M120.348 751.15H87.1484V784.35H120.348V751.15Z" fill="#D1D1D1"/>
<path id="Vector_365" opacity="0.15" d="M161.848 751.15H128.648V784.35H161.848V751.15Z" fill="#CDCDCD"/>
<path id="Vector_366" opacity="0.08" d="M203.348 751.15H170.148V784.35H203.348V751.15Z" fill="#B2B2B2"/>
<path id="Vector_367" opacity="0.14" d="M244.848 751.15H211.648V784.35H244.848V751.15Z" fill="#C5C5C5"/>
<path id="Vector_368" opacity="0.15" d="M286.348 751.15H253.148V784.35H286.348V751.15Z" fill="#BCBCBC"/>
<path id="Vector_369" opacity="0.08" d="M327.848 751.15H294.648V784.35H327.848V751.15Z" fill="#BABABA"/>
<path id="Vector_370" opacity="0.14" d="M369.348 751.15H336.148V784.35H369.348V751.15Z" fill="#D9D9D9"/>
<path id="Vector_371" opacity="0.08" d="M410.848 751.15H377.648V784.35H410.848V751.15Z" fill="#C9C9C9"/>
<path id="Vector_372" opacity="0.14" d="M452.348 751.15H419.148V784.35H452.348V751.15Z" fill="#D6D6D6"/>
<path id="Vector_373" opacity="0.15" d="M493.848 751.15H460.648V784.35H493.848V751.15Z" fill="#B9B9B9"/>
<path id="Vector_374" opacity="0.1" d="M535.348 751.15H502.148V784.35H535.348V751.15Z" fill="#A0A0A0"/>
<path id="Vector_375" opacity="0.14" d="M576.848 751.15H543.648V784.35H576.848V751.15Z" fill="#A3A3A3"/>
<path id="Vector_376" opacity="0.14" d="M618.348 751.15H585.148V784.35H618.348V751.15Z" fill="#B9B9B9"/>
<path id="Vector_377" opacity="0.08" d="M659.848 751.15H626.648V784.35H659.848V751.15Z" fill="#B7B7B7"/>
<path id="Vector_378" opacity="0.14" d="M701.348 751.15H668.148V784.35H701.348V751.15Z" fill="#BCBCBC"/>
<path id="Vector_379" opacity="0.15" d="M742.848 751.15H709.648V784.35H742.848V751.15Z" fill="#D4D4D4"/>
<path id="Vector_380" opacity="0.06" d="M784.348 751.15H751.148V784.35H784.348V751.15Z" fill="#CCCCCC"/>
<path id="Vector_381" opacity="0.11" d="M825.848 751.15H792.648V784.35H825.848V751.15Z" fill="#C6C6C6"/>
<path id="Vector_382" opacity="0.07" d="M37.3484 792.65H4.14844V825.85H37.3484V792.65Z" fill="#D0D0D0"/>
<path id="Vector_383" opacity="0.08" d="M78.8484 792.65H45.6484V825.85H78.8484V792.65Z" fill="#D1D1D1"/>
<path id="Vector_384" opacity="0.13" d="M120.348 792.65H87.1484V825.85H120.348V792.65Z" fill="#ABABAB"/>
<path id="Vector_385" opacity="0.14" d="M161.848 792.65H128.648V825.85H161.848V792.65Z" fill="#D3D3D3"/>
<path id="Vector_386" opacity="0.13" d="M203.348 792.65H170.148V825.85H203.348V792.65Z" fill="#C4C4C4"/>
<path id="Vector_387" opacity="0.1" d="M244.848 792.65H211.648V825.85H244.848V792.65Z" fill="#ACACAC"/>
<path id="Vector_388" opacity="0.14" d="M286.348 792.65H253.148V825.85H286.348V792.65Z" fill="#A4A4A4"/>
<path id="Vector_389" opacity="0.07" d="M327.848 792.65H294.648V825.85H327.848V792.65Z" fill="#AFAFAF"/>
<path id="Vector_390" opacity="0.13" d="M369.348 792.65H336.148V825.85H369.348V792.65Z" fill="#ABABAB"/>
<path id="Vector_391" opacity="0.09" d="M410.848 792.65H377.648V825.85H410.848V792.65Z" fill="#C6C6C6"/>
<path id="Vector_392" opacity="0.09" d="M452.348 792.65H419.148V825.85H452.348V792.65Z" fill="#D3D3D3"/>
<path id="Vector_393" opacity="0.06" d="M493.848 792.65H460.648V825.85H493.848V792.65Z" fill="#BABABA"/>
<path id="Vector_394" opacity="0.09" d="M535.348 792.65H502.148V825.85H535.348V792.65Z" fill="#D8D8D8"/>
<path id="Vector_395" opacity="0.07" d="M576.848 792.65H543.648V825.85H576.848V792.65Z" fill="#CCCCCC"/>
<path id="Vector_396" opacity="0.07" d="M618.348 792.65H585.148V825.85H618.348V792.65Z" fill="#ACACAC"/>
<path id="Vector_397" opacity="0.06" d="M659.848 792.65H626.648V825.85H659.848V792.65Z" fill="#B8B8B8"/>
<path id="Vector_398" opacity="0.07" d="M701.348 792.65H668.148V825.85H701.348V792.65Z" fill="#D1D1D1"/>
<path id="Vector_399" opacity="0.06" d="M742.848 792.65H709.648V825.85H742.848V792.65Z" fill="#BDBDBD"/>
<path id="Vector_400" opacity="0.07" d="M784.348 792.65H751.148V825.85H784.348V792.65Z" fill="#B6B6B6"/>
<path id="Vector_401" opacity="0.06" d="M825.848 792.65H792.648V825.85H825.848V792.65Z" fill="#C4C4C4"/>
</g>
<defs>
<clipPath id="clip0_75_15807">
<rect width="830" height="830" fill="white"/>
</clipPath>
</defs>
</svg>
